<?xml version="1.0" encoding="UTF-8" standalone="no"?>
<!-- Created with Inkscape (http://www.inkscape.org/) -->

<svg
   width="64"
   height="64"
   viewBox="0 0 16.933333 16.933333"
   version="1.1"
   id="svg5"
   inkscape:version="1.1.2 (0a00cf5339, 2022-02-04)"
   sodipodi:docname="icons.svg"
   inkscape:export-filename="/home/dasprid/dev/osc-manager/assets/icon-inactive-windows.png"
   inkscape:export-xdpi="96.000008"
   inkscape:export-ydpi="96.000008"
   xmlns:inkscape="http://www.inkscape.org/namespaces/inkscape"
   xmlns:sodipodi="http://sodipodi.sourceforge.net/DTD/sodipodi-0.dtd"
   xmlns="http://www.w3.org/2000/svg"
   xmlns:svg="http://www.w3.org/2000/svg">
  <sodipodi:namedview
     id="namedview7"
     pagecolor="#505050"
     bordercolor="#ffffff"
     borderopacity="1"
     inkscape:pageshadow="0"
     inkscape:pageopacity="0"
     inkscape:pagecheckerboard="1"
     inkscape:document-units="px"
     showgrid="false"
     units="px"
     inkscape:zoom="1.877186"
     inkscape:cx="8.7897525"
     inkscape:cy="13.584163"
     inkscape:window-width="2049"
     inkscape:window-height="1336"
     inkscape:window-x="337"
     inkscape:window-y="91"
     inkscape:window-maximized="0"
     inkscape:current-layer="layer2" />
  <defs
     id="defs2" />
  <g
     inkscape:groupmode="layer"
     id="layer2"
     inkscape:label="Windows"
     style="display:inline">
    <path
       id="path5209-3"
       style="font-family:Audiowide;-inkscape-font-specification:Audiowide;text-align:center;text-anchor:middle;display:inline;fill:#1a1a1a;fill-opacity:1;stroke-width:0.264582"
       d="m 3.2783135,0.4011666 c -0.444416,0 -0.8561608,0.0775294 -1.2351201,0.23255817 C 1.6642341,0.78875359 1.336832,1.0040571 1.0612253,1.2796639 0.78561853,1.5518256 0.56873721,1.8792276 0.41026331,2.2616321 0.25523451,2.6405913 0.17770513,3.053914 0.17770513,3.5017748 v 1.415943 c 0,0.4513061 0.0775294,0.8662062 0.23255818,1.2451657 0.1584739,0.3789593 0.37535522,0.7063614 0.65096199,0.9819681 0.2756067,0.2756067 0.6030088,0.4909103 0.9819681,0.6459392 0.3789593,0.1515835 0.7907041,0.2275351 1.2351201,0.2275351 h 1.8187756 c 0.4444161,0 0.8545829,-0.075952 1.2300972,-0.2275351 C 6.7061455,7.6357619 7.0335476,7.4204583 7.3091546,7.1448516 7.5847613,6.8692449 7.8000649,6.5418428 7.9550938,6.1628835 8.1101224,5.783924 8.1876517,5.3690239 8.1876517,4.9177178 v -1.415943 c 0,-0.4478608 -0.077529,-0.8611835 -0.2325579,-1.2401427 C 7.8000649,1.8792276 7.5847613,1.5518256 7.3091546,1.2796639 7.0335476,1.0040571 6.7061455,0.78875359 6.3271863,0.63372477 5.951672,0.47869598 5.5415052,0.4011666 5.0970891,0.4011666 Z m 8.1078925,0.10347081 c -0.21704,0 -0.451206,0.0393024 -0.702698,0.11853937 C 10.432017,0.69896864 10.197851,0.82469389 9.9808111,1.0003932 9.7672158,1.1726474 9.588059,1.3984222 9.4433656,1.677474 9.3021172,1.9530808 9.231401,2.2925318 9.231401,2.6956067 c 0,0.403075 0.070716,0.7441037 0.2119646,1.0231555 0.1446934,0.279052 0.3238502,0.5048268 0.5374455,0.6770809 0.2170399,0.1722541 0.4512059,0.2979795 0.7026969,0.3772165 0.251492,0.075792 0.485658,0.1135164 0.702698,0.1135164 h 3.090562 c 0.124024,0 0.23562,0.02044 0.335527,0.061781 0.103353,0.041341 0.189776,0.1000081 0.258677,0.1758 0.07235,0.075792 0.127353,0.1653705 0.165252,0.2687228 0.03789,0.1033526 0.05676,0.2170287 0.05676,0.3410519 0,0.2549361 -0.07229,0.4581908 -0.216987,0.6097746 -0.141249,0.1515836 -0.340845,0.2275352 -0.599227,0.2275352 H 9.293182 v 1.3436138 h 5.183586 c 0.144694,0 0.297672,-0.017284 0.459592,-0.051735 0.165364,-0.034451 0.327236,-0.087883 0.48571,-0.1602291 0.158473,-0.072347 0.311955,-0.1650806 0.460093,-0.2787684 0.148139,-0.113688 0.277522,-0.2519645 0.387765,-0.4138835 0.110246,-0.1619189 0.197744,-0.347889 0.263197,-0.5580389 0.0689,-0.2135953 0.103471,-0.4529968 0.103471,-0.7182683 0,-0.2652713 -0.03249,-0.5025931 -0.09795,-0.7127431 C 16.473194,4.8110384 16.383616,4.6245659 16.269928,4.4626469 16.159685,4.300728 16.031879,4.1629539 15.887186,4.0492662 15.742493,3.9321332 15.589514,3.8357414 15.427595,3.7599498 15.269121,3.6841576 15.108826,3.6291484 14.946908,3.5946976 c -0.161919,-0.037894 -0.3154,-0.058837 -0.460094,-0.062283 h -0.01004 -3.090563 c -0.254935,0 -0.454532,-0.073872 -0.599226,-0.2220101 C 10.645732,3.1588204 10.575016,2.953988 10.575016,2.6956067 10.575015,2.4406704 10.645732,2.2353358 10.78698,2.080307 10.931674,1.9252782 11.131271,1.8482511 11.386206,1.8482511 h 4.573309 V 0.50463741 Z M 3.2783135,1.7447803 h 1.8187756 c 0.2583815,0 0.4946273,0.04296 0.7082225,0.1290873 0.2170406,0.082682 0.4014326,0.2015939 0.5530164,0.3566227 0.1550289,0.1515838 0.2739408,0.335976 0.3566228,0.5530164 0.086127,0.2135951 0.1290873,0.4529966 0.1290873,0.7182681 v 1.415943 c 0,0.2652715 -0.04296,0.5062508 -0.1290873,0.7232911 C 6.6322688,5.8546041 6.5133569,6.0389964 6.358328,6.194025 6.2032992,6.3456089 6.0173291,6.4645207 5.8002888,6.5506478 5.5866936,6.6333298 5.3488698,6.6747123 5.0870436,6.6747123 H 3.2783135 c -0.2618264,0 -0.501228,-0.041383 -0.7182683,-0.1240645 C 2.3464499,6.4645207 2.1620577,6.3456089 2.0070289,6.194025 1.8520001,6.0389964 1.7315105,5.8546041 1.6453833,5.6410089 1.5627013,5.4239686 1.5213188,5.1829893 1.5213188,4.9177178 v -1.415943 c 0,-0.2652715 0.041383,-0.504673 0.1240645,-0.7182681 C 1.7315105,2.5664663 1.8520001,2.3820741 2.0070289,2.2304903 2.1620577,2.0754615 2.3464499,1.9565497 2.5600452,1.8738676 2.7770855,1.7877406 3.0164871,1.7447803 3.2783135,1.7447803 Z m 3.6380537,7.4016789 c -0.2308207,0 -0.4377332,0.029334 -0.6203224,0.0879 C 6.1134552,9.2929256 5.9515831,9.3720329 5.8103347,9.4719402 5.6725313,9.5684027 5.5536194,9.6805011 5.4537119,9.8079693 5.3538044,9.9354375 5.2731195,10.069554 5.2111081,10.210802 c -0.062011,0.137804 -0.1086294,0.279235 -0.1396354,0.423929 -0.027561,0.141248 -0.041187,0.273787 -0.041187,0.39781 v 3.638054 c 0,0.230821 0.029333,0.439311 0.0879,0.625345 0.058566,0.18259 0.1360958,0.344462 0.232558,0.48571 0.099907,0.137804 0.2135837,0.256716 0.3410519,0.356623 0.1274682,0.09646 0.2600067,0.17557 0.3978101,0.237581 0.1412486,0.06201 0.2821781,0.108629 0.4234268,0.139636 0.1446934,0.02756 0.2793123,0.04119 0.4033351,0.04119 H 11.763422 V 15.213063 H 6.9163672 c -0.1722541,0 -0.3068729,-0.04662 -0.4033351,-0.139635 -0.093017,-0.09646 -0.1391332,-0.230578 -0.1391332,-0.402833 v -3.627506 c 0,-0.182589 0.046116,-0.320363 0.1391332,-0.413381 0.093017,-0.09302 0.227636,-0.139635 0.4033351,-0.139635 H 11.763422 V 9.1464592 Z"
       inkscape:label="Inactive" />
    <path
       id="path9690-1"
       style="font-family:Audiowide;-inkscape-font-specification:Audiowide;text-align:center;text-anchor:middle;display:none;fill:#438c04;fill-opacity:1;stroke-width:0.264582"
       d="m 3.2783135,0.4011666 c -0.444416,0 -0.8561608,0.0775294 -1.2351201,0.23255817 C 1.6642341,0.78875359 1.336832,1.0040571 1.0612253,1.2796639 0.78561853,1.5518256 0.56873721,1.8792276 0.41026331,2.2616321 0.25523451,2.6405913 0.17770513,3.053914 0.17770513,3.5017748 v 1.415943 c 0,0.4513061 0.0775294,0.8662062 0.23255818,1.2451657 0.1584739,0.3789593 0.37535522,0.7063614 0.65096199,0.9819681 0.2756067,0.2756067 0.6030088,0.4909103 0.9819681,0.6459392 0.3789593,0.1515835 0.7907041,0.2275351 1.2351201,0.2275351 h 1.8187756 c 0.4444161,0 0.8545829,-0.075952 1.2300972,-0.2275351 C 6.7061455,7.6357619 7.0335476,7.4204583 7.3091546,7.1448516 7.5847613,6.8692449 7.8000649,6.5418428 7.9550938,6.1628835 8.1101224,5.783924 8.1876517,5.3690239 8.1876517,4.9177178 v -1.415943 c 0,-0.4478608 -0.077529,-0.8611835 -0.2325579,-1.2401427 C 7.8000649,1.8792276 7.5847613,1.5518256 7.3091546,1.2796639 7.0335476,1.0040571 6.7061455,0.78875359 6.3271863,0.63372477 5.951672,0.47869598 5.5415052,0.4011666 5.0970891,0.4011666 Z m 8.1078925,0.10347081 c -0.21704,0 -0.451206,0.0393024 -0.702698,0.11853937 C 10.432017,0.69896864 10.197851,0.82469389 9.9808111,1.0003932 9.7672158,1.1726474 9.588059,1.3984222 9.4433656,1.677474 9.3021172,1.9530808 9.231401,2.2925318 9.231401,2.6956067 c 0,0.403075 0.070716,0.7441037 0.2119646,1.0231555 0.1446934,0.279052 0.3238502,0.5048268 0.5374455,0.6770809 0.2170399,0.1722541 0.4512059,0.2979795 0.7026969,0.3772165 0.251492,0.075792 0.485658,0.1135164 0.702698,0.1135164 h 3.090562 c 0.124024,0 0.23562,0.02044 0.335527,0.061781 0.103353,0.041341 0.189776,0.1000081 0.258677,0.1758 0.07235,0.075792 0.127353,0.1653705 0.165252,0.2687228 0.03789,0.1033526 0.05676,0.2170287 0.05676,0.3410519 0,0.2549361 -0.07229,0.4581908 -0.216987,0.6097746 -0.141249,0.1515836 -0.340845,0.2275352 -0.599227,0.2275352 H 9.293182 v 1.3436138 h 5.183586 c 0.144694,0 0.297672,-0.017284 0.459592,-0.051735 0.165364,-0.034451 0.327236,-0.087883 0.48571,-0.1602291 0.158473,-0.072347 0.311955,-0.1650806 0.460093,-0.2787684 0.148139,-0.113688 0.277522,-0.2519645 0.387765,-0.4138835 0.110246,-0.1619189 0.197744,-0.347889 0.263197,-0.5580389 0.0689,-0.2135953 0.103471,-0.4529968 0.103471,-0.7182683 0,-0.2652713 -0.03249,-0.5025931 -0.09795,-0.7127431 C 16.473194,4.8110384 16.383616,4.6245659 16.269928,4.4626469 16.159685,4.300728 16.031879,4.1629539 15.887186,4.0492662 15.742493,3.9321332 15.589514,3.8357414 15.427595,3.7599498 15.269121,3.6841576 15.108826,3.6291484 14.946908,3.5946976 c -0.161919,-0.037894 -0.3154,-0.058837 -0.460094,-0.062283 h -0.01004 -3.090563 c -0.254935,0 -0.454532,-0.073872 -0.599226,-0.2220101 C 10.645732,3.1588204 10.575016,2.953988 10.575016,2.6956067 10.575015,2.4406704 10.645732,2.2353358 10.78698,2.080307 10.931674,1.9252782 11.131271,1.8482511 11.386206,1.8482511 h 4.573309 V 0.50463741 Z M 3.2783135,1.7447803 h 1.8187756 c 0.2583815,0 0.4946273,0.04296 0.7082225,0.1290873 0.2170406,0.082682 0.4014326,0.2015939 0.5530164,0.3566227 0.1550289,0.1515838 0.2739408,0.335976 0.3566228,0.5530164 0.086127,0.2135951 0.1290873,0.4529966 0.1290873,0.7182681 v 1.415943 c 0,0.2652715 -0.04296,0.5062508 -0.1290873,0.7232911 C 6.6322688,5.8546041 6.5133569,6.0389964 6.358328,6.194025 6.2032992,6.3456089 6.0173291,6.4645207 5.8002888,6.5506478 5.5866936,6.6333298 5.3488698,6.6747123 5.0870436,6.6747123 H 3.2783135 c -0.2618264,0 -0.501228,-0.041383 -0.7182683,-0.1240645 C 2.3464499,6.4645207 2.1620577,6.3456089 2.0070289,6.194025 1.8520001,6.0389964 1.7315105,5.8546041 1.6453833,5.6410089 1.5627013,5.4239686 1.5213188,5.1829893 1.5213188,4.9177178 v -1.415943 c 0,-0.2652715 0.041383,-0.504673 0.1240645,-0.7182681 C 1.7315105,2.5664663 1.8520001,2.3820741 2.0070289,2.2304903 2.1620577,2.0754615 2.3464499,1.9565497 2.5600452,1.8738676 2.7770855,1.7877406 3.0164871,1.7447803 3.2783135,1.7447803 Z m 3.6380537,7.4016789 c -0.2308207,0 -0.4377332,0.029334 -0.6203224,0.0879 C 6.1134552,9.2929256 5.9515831,9.3720329 5.8103347,9.4719402 5.6725313,9.5684027 5.5536194,9.6805011 5.4537119,9.8079693 5.3538044,9.9354375 5.2731195,10.069554 5.2111081,10.210802 c -0.062011,0.137804 -0.1086294,0.279235 -0.1396354,0.423929 -0.027561,0.141248 -0.041187,0.273787 -0.041187,0.39781 v 3.638054 c 0,0.230821 0.029333,0.439311 0.0879,0.625345 0.058566,0.18259 0.1360958,0.344462 0.232558,0.48571 0.099907,0.137804 0.2135837,0.256716 0.3410519,0.356623 0.1274682,0.09646 0.2600067,0.17557 0.3978101,0.237581 0.1412486,0.06201 0.2821781,0.108629 0.4234268,0.139636 0.1446934,0.02756 0.2793123,0.04119 0.4033351,0.04119 H 11.763422 V 15.213063 H 6.9163672 c -0.1722541,0 -0.3068729,-0.04662 -0.4033351,-0.139635 -0.093017,-0.09646 -0.1391332,-0.230578 -0.1391332,-0.402833 v -3.627506 c 0,-0.182589 0.046116,-0.320363 0.1391332,-0.413381 0.093017,-0.09302 0.227636,-0.139635 0.4033351,-0.139635 H 11.763422 V 9.1464592 Z"
       inkscape:label="Active" />
  </g>
  <g
     inkscape:groupmode="layer"
     id="layer3"
     inkscape:label="Linux">
    <path
       id="path5209"
       style="font-family:Audiowide;-inkscape-font-specification:Audiowide;text-align:center;text-anchor:middle;display:none;fill:#dadada;fill-opacity:1;stroke-width:1.02882"
       d="m 12.056641,0.58984375 c -1.728101,0 -3.3291608,0.30147112 -4.8027348,0.90429685 C 5.780332,2.0969664 4.507237,2.934169 3.4355469,4.0058594 2.3638566,5.0641535 1.5205188,6.3372484 0.90429688,7.8242188 0.30147112,9.2977927 0,10.904988 0,12.646484 v 5.50586 c 0,1.754893 0.30147112,3.368222 0.90429688,4.841797 0.61622192,1.473574 1.45955972,2.746669 2.53125002,3.818359 1.0716901,1.07169 2.3447851,1.908893 3.8183593,2.511719 1.473574,0.589429 3.0746338,0.884765 4.8027348,0.884765 h 7.072265 c 1.728101,0 3.323025,-0.295336 4.783203,-0.884765 1.473574,-0.602826 2.746669,-1.440029 3.81836,-2.511719 1.07169,-1.07169 1.908893,-2.344785 2.511719,-3.818359 0.602825,-1.473575 0.904296,-3.086904 0.904296,-4.841797 v -5.50586 c 0,-1.741496 -0.301471,-3.3486913 -0.904296,-4.8222652 C 29.639362,6.3372484 28.802159,5.0641535 27.730469,4.0058594 26.658778,2.934169 25.385683,2.0969664 23.912109,1.4941406 22.451931,0.89131487 20.857007,0.58984375 19.128906,0.58984375 Z M 43.583984,0.9921875 c -0.843954,0 -1.754504,0.1528265 -2.732422,0.4609375 -0.977917,0.2947148 -1.888466,0.7835944 -2.732421,1.4667969 -0.83056,0.6698065 -1.527207,1.5477263 -2.089844,2.6328125 -0.549241,1.0716904 -0.824219,2.3916374 -0.824219,3.9589844 0,1.5673472 0.274978,2.8934292 0.824219,3.9785152 0.562637,1.085087 1.259284,1.963007 2.089844,2.632813 0.843955,0.669806 1.754504,1.158686 2.732421,1.466797 0.977918,0.294715 1.888468,0.441406 2.732422,0.441406 h 12.017578 c 0.482262,0 0.916201,0.07948 1.304688,0.240234 0.401884,0.160754 0.737938,0.388879 1.005859,0.683594 0.281319,0.294715 0.49521,0.643039 0.642579,1.044922 0.147347,0.401884 0.220703,0.843911 0.220703,1.326172 0,0.991313 -0.281114,1.781664 -0.84375,2.371094 -0.549242,0.589429 -1.325369,0.884765 -2.330079,0.884765 h -20.15625 v 5.22461 h 20.15625 c 0.562637,0 1.15749,-0.06721 1.78711,-0.201172 0.643014,-0.133962 1.272449,-0.341729 1.888672,-0.623047 0.616219,-0.281319 1.213029,-0.641912 1.789062,-1.083984 0.576034,-0.442073 1.079137,-0.979758 1.507813,-1.609376 0.428689,-0.629618 0.768924,-1.352758 1.023437,-2.169921 C 63.86558,23.288581 64,22.357674 64,21.326172 c 0,-1.031501 -0.12632,-1.954321 -0.380859,-2.771484 -0.254527,-0.817164 -0.602849,-1.542258 -1.044922,-2.171876 -0.428676,-0.629618 -0.925645,-1.165349 -1.488281,-1.607421 -0.562637,-0.455469 -1.15749,-0.830286 -1.78711,-1.125 -0.616222,-0.294716 -1.239524,-0.508618 -1.86914,-0.642579 -0.629617,-0.147352 -1.226424,-0.228785 -1.789063,-0.242187 h -0.03906 -12.017578 c -0.991312,0 -1.767439,-0.287248 -2.330078,-0.863281 -0.549239,-0.58943 -0.824218,-1.385916 -0.824218,-2.3906252 -10e-7,-0.9913136 0.274979,-1.7897524 0.824218,-2.3925782 0.562639,-0.6028257 1.338766,-0.9023437 2.330078,-0.9023437 H 61.367188 V 0.9921875 Z M 12.056641,5.8144531 h 7.072265 c 1.00471,0 1.923346,0.1670501 2.753906,0.5019531 0.843957,0.3215073 1.560961,0.783893 2.150391,1.3867188 0.602826,0.5894297 1.065212,1.3064345 1.386719,2.1503906 0.334903,0.8305594 0.501953,1.7614664 0.501953,2.7929684 v 5.50586 c 0,1.031502 -0.16705,1.968544 -0.501953,2.8125 -0.321507,0.83056 -0.783893,1.547565 -1.386719,2.15039 -0.602826,0.58943 -1.325966,1.051816 -2.169922,1.386719 -0.83056,0.321507 -1.755332,0.482422 -2.773437,0.482422 h -7.033203 c -1.018106,0 -1.949013,-0.160915 -2.7929691,-0.482422 C 8.4331118,24.16705 7.716107,23.704664 7.1132812,23.115234 6.5104555,22.512409 6.0419345,21.795404 5.7070312,20.964844 5.3855243,20.120888 5.2246094,19.183846 5.2246094,18.152344 v -5.50586 c 0,-1.031502 0.1609149,-1.962409 0.4824218,-2.7929684 C 6.0419345,9.0095595 6.5104555,8.2925547 7.1132812,7.703125 7.716107,7.1002992 8.4331118,6.6379135 9.2636719,6.3164062 10.107628,5.9815032 11.038535,5.8144531 12.056641,5.8144531 Z M 26.203125,34.595703 c -0.897541,0 -1.702115,0.114063 -2.412109,0.341797 -0.709995,0.227734 -1.339431,0.535341 -1.888672,0.923828 -0.535845,0.375092 -0.998231,0.810984 -1.386719,1.306641 -0.388488,0.495657 -0.702229,1.017166 -0.943359,1.566406 -0.24113,0.535845 -0.422403,1.085798 -0.542969,1.648437 -0.107169,0.54924 -0.160156,1.064614 -0.160156,1.546876 v 14.146484 c 0,0.89754 0.114062,1.708249 0.341797,2.43164 0.227734,0.709995 0.529205,1.33943 0.904296,1.888672 0.388488,0.535845 0.830515,0.998232 1.326172,1.386719 0.495657,0.375093 1.01103,0.682699 1.546875,0.923828 0.549242,0.24113 1.097243,0.4224 1.646485,0.542969 0.562637,0.107166 1.086099,0.160156 1.568359,0.160156 H 45.050781 V 58.185547 H 26.203125 c -0.669806,0 -1.193268,-0.181273 -1.568359,-0.542969 C 24.27307,57.267488 24.09375,56.74598 24.09375,56.076172 V 41.970703 c 0,-0.709994 0.17932,-1.245726 0.541016,-1.607422 0.361695,-0.361695 0.885157,-0.542969 1.568359,-0.542969 h 18.847656 v -5.224609 z"
       transform="matrix(0.25717017,0,0,0.25717017,0.17770513,0.24947638)"
       inkscape:label="Inactive" />
    <path
       id="path9690"
       style="font-family:Audiowide;-inkscape-font-specification:Audiowide;text-align:center;text-anchor:middle;display:none;fill:#90f937;fill-opacity:1;stroke-width:1.02882"
       d="m 12.056641,0.58984375 c -1.728101,0 -3.3291608,0.30147112 -4.8027348,0.90429685 C 5.780332,2.0969664 4.507237,2.934169 3.4355469,4.0058594 2.3638566,5.0641535 1.5205188,6.3372484 0.90429688,7.8242188 0.30147112,9.2977927 0,10.904988 0,12.646484 v 5.50586 c 0,1.754893 0.30147112,3.368222 0.90429688,4.841797 0.61622192,1.473574 1.45955972,2.746669 2.53125002,3.818359 1.0716901,1.07169 2.3447851,1.908893 3.8183593,2.511719 1.473574,0.589429 3.0746338,0.884765 4.8027348,0.884765 h 7.072265 c 1.728101,0 3.323025,-0.295336 4.783203,-0.884765 1.473574,-0.602826 2.746669,-1.440029 3.81836,-2.511719 1.07169,-1.07169 1.908893,-2.344785 2.511719,-3.818359 0.602825,-1.473575 0.904296,-3.086904 0.904296,-4.841797 v -5.50586 c 0,-1.741496 -0.301471,-3.3486913 -0.904296,-4.8222652 C 29.639362,6.3372484 28.802159,5.0641535 27.730469,4.0058594 26.658778,2.934169 25.385683,2.0969664 23.912109,1.4941406 22.451931,0.89131487 20.857007,0.58984375 19.128906,0.58984375 Z M 43.583984,0.9921875 c -0.843954,0 -1.754504,0.1528265 -2.732422,0.4609375 -0.977917,0.2947148 -1.888466,0.7835944 -2.732421,1.4667969 -0.83056,0.6698065 -1.527207,1.5477263 -2.089844,2.6328125 -0.549241,1.0716904 -0.824219,2.3916374 -0.824219,3.9589844 0,1.5673472 0.274978,2.8934292 0.824219,3.9785152 0.562637,1.085087 1.259284,1.963007 2.089844,2.632813 0.843955,0.669806 1.754504,1.158686 2.732421,1.466797 0.977918,0.294715 1.888468,0.441406 2.732422,0.441406 h 12.017578 c 0.482262,0 0.916201,0.07948 1.304688,0.240234 0.401884,0.160754 0.737938,0.388879 1.005859,0.683594 0.281319,0.294715 0.49521,0.643039 0.642579,1.044922 0.147347,0.401884 0.220703,0.843911 0.220703,1.326172 0,0.991313 -0.281114,1.781664 -0.84375,2.371094 -0.549242,0.589429 -1.325369,0.884765 -2.330079,0.884765 h -20.15625 v 5.22461 h 20.15625 c 0.562637,0 1.15749,-0.06721 1.78711,-0.201172 0.643014,-0.133962 1.272449,-0.341729 1.888672,-0.623047 0.616219,-0.281319 1.213029,-0.641912 1.789062,-1.083984 0.576034,-0.442073 1.079137,-0.979758 1.507813,-1.609376 0.428689,-0.629618 0.768924,-1.352758 1.023437,-2.169921 C 63.86558,23.288581 64,22.357674 64,21.326172 c 0,-1.031501 -0.12632,-1.954321 -0.380859,-2.771484 -0.254527,-0.817164 -0.602849,-1.542258 -1.044922,-2.171876 -0.428676,-0.629618 -0.925645,-1.165349 -1.488281,-1.607421 -0.562637,-0.455469 -1.15749,-0.830286 -1.78711,-1.125 -0.616222,-0.294716 -1.239524,-0.508618 -1.86914,-0.642579 -0.629617,-0.147352 -1.226424,-0.228785 -1.789063,-0.242187 h -0.03906 -12.017578 c -0.991312,0 -1.767439,-0.287248 -2.330078,-0.863281 -0.549239,-0.58943 -0.824218,-1.385916 -0.824218,-2.3906252 -10e-7,-0.9913136 0.274979,-1.7897524 0.824218,-2.3925782 0.562639,-0.6028257 1.338766,-0.9023437 2.330078,-0.9023437 H 61.367188 V 0.9921875 Z M 12.056641,5.8144531 h 7.072265 c 1.00471,0 1.923346,0.1670501 2.753906,0.5019531 0.843957,0.3215073 1.560961,0.783893 2.150391,1.3867188 0.602826,0.5894297 1.065212,1.3064345 1.386719,2.1503906 0.334903,0.8305594 0.501953,1.7614664 0.501953,2.7929684 v 5.50586 c 0,1.031502 -0.16705,1.968544 -0.501953,2.8125 -0.321507,0.83056 -0.783893,1.547565 -1.386719,2.15039 -0.602826,0.58943 -1.325966,1.051816 -2.169922,1.386719 -0.83056,0.321507 -1.755332,0.482422 -2.773437,0.482422 h -7.033203 c -1.018106,0 -1.949013,-0.160915 -2.7929691,-0.482422 C 8.4331118,24.16705 7.716107,23.704664 7.1132812,23.115234 6.5104555,22.512409 6.0419345,21.795404 5.7070312,20.964844 5.3855243,20.120888 5.2246094,19.183846 5.2246094,18.152344 v -5.50586 c 0,-1.031502 0.1609149,-1.962409 0.4824218,-2.7929684 C 6.0419345,9.0095595 6.5104555,8.2925547 7.1132812,7.703125 7.716107,7.1002992 8.4331118,6.6379135 9.2636719,6.3164062 10.107628,5.9815032 11.038535,5.8144531 12.056641,5.8144531 Z M 26.203125,34.595703 c -0.897541,0 -1.702115,0.114063 -2.412109,0.341797 -0.709995,0.227734 -1.339431,0.535341 -1.888672,0.923828 -0.535845,0.375092 -0.998231,0.810984 -1.386719,1.306641 -0.388488,0.495657 -0.702229,1.017166 -0.943359,1.566406 -0.24113,0.535845 -0.422403,1.085798 -0.542969,1.648437 -0.107169,0.54924 -0.160156,1.064614 -0.160156,1.546876 v 14.146484 c 0,0.89754 0.114062,1.708249 0.341797,2.43164 0.227734,0.709995 0.529205,1.33943 0.904296,1.888672 0.388488,0.535845 0.830515,0.998232 1.326172,1.386719 0.495657,0.375093 1.01103,0.682699 1.546875,0.923828 0.549242,0.24113 1.097243,0.4224 1.646485,0.542969 0.562637,0.107166 1.086099,0.160156 1.568359,0.160156 H 45.050781 V 58.185547 H 26.203125 c -0.669806,0 -1.193268,-0.181273 -1.568359,-0.542969 C 24.27307,57.267488 24.09375,56.74598 24.09375,56.076172 V 41.970703 c 0,-0.709994 0.17932,-1.245726 0.541016,-1.607422 0.361695,-0.361695 0.885157,-0.542969 1.568359,-0.542969 h 18.847656 v -5.224609 z"
       transform="matrix(0.25717017,0,0,0.25717017,0.17770513,0.24947638)"
       inkscape:label="Active" />
  </g>
</svg>
