<?xml version="1.0" encoding="UTF-8" standalone="no"?>
<!-- Created with Inkscape (http://www.inkscape.org/) -->

<svg
   width="128"
   height="128"
   viewBox="0 0 33.866666 33.866666"
   version="1.1"
   id="svg5"
   inkscape:version="1.1.2 (0a00cf5339, 2022-02-04)"
   sodipodi:docname="icons.svg"
   inkscape:export-filename="/home/dasprid/dev/osc-manager/assets/icon-inactive-windows.png"
   inkscape:export-xdpi="96.000008"
   inkscape:export-ydpi="96.000008"
   xmlns:inkscape="http://www.inkscape.org/namespaces/inkscape"
   xmlns:sodipodi="http://sodipodi.sourceforge.net/DTD/sodipodi-0.dtd"
   xmlns:xlink="http://www.w3.org/1999/xlink"
   xmlns="http://www.w3.org/2000/svg"
   xmlns:svg="http://www.w3.org/2000/svg">
  <sodipodi:namedview
     id="namedview7"
     pagecolor="#505050"
     bordercolor="#ffffff"
     borderopacity="1"
     inkscape:pageshadow="0"
     inkscape:pageopacity="0"
     inkscape:pagecheckerboard="1"
     inkscape:document-units="px"
     showgrid="false"
     units="px"
     inkscape:zoom="5.3094838"
     inkscape:cx="71.005019"
     inkscape:cy="36.726734"
     inkscape:window-width="2560"
     inkscape:window-height="1531"
     inkscape:window-x="0"
     inkscape:window-y="32"
     inkscape:window-maximized="1"
     inkscape:current-layer="layer1" />
  <defs
     id="defs2" />
  <g
     inkscape:groupmode="layer"
     id="layer1"
     inkscape:label="Icons"
     style="display:inline">
    <g
       id="g1525"
       transform="translate(0,0.15606477)"
       inkscape:label="Base">
      <rect
         style="fill:#000000;fill-opacity:0;stroke-width:1.32292;stroke-linejoin:round;paint-order:fill markers stroke;stop-color:#000000"
         id="rect1243"
         width="16.933332"
         height="16.933332"
         x="0"
         y="-21.322731"
         inkscape:label="Square" />
      <path
         id="path1111"
         style="font-family:Audiowide;-inkscape-font-specification:Audiowide;text-align:center;text-anchor:middle;display:inline;fill-opacity:1;stroke-width:0.272209"
         d="m 3.1899835,-21.166666 c -0.4572268,0 -0.8808405,0.07977 -1.2707236,0.239262 -0.3898832,0.159498 -0.7267229,0.381008 -1.01027415,0.66456 -0.28355143,0.280006 -0.50668453,0.616846 -0.66972663,1.010274 -0.1594976,0.389882 -0.2392618983813,0.81512 -0.2392618983813,1.27589 v 1.456759 c 0,0.464316 0.079763998381,0.891176 0.2392618983813,1.281059 0.1630421,0.389883 0.3861752,0.726723 0.66972663,1.010274 0.28355125,0.283551 0.62039095,0.505062 1.01027415,0.664559 0.3898831,0.155953 0.8134968,0.234095 1.2707236,0.234095 H 5.061187 c 0.4572266,0 0.879217,-0.07814 1.2655557,-0.234095 0.389883,-0.159497 0.726723,-0.381008 1.010274,-0.664559 0.283552,-0.283551 0.505062,-0.620391 0.664559,-1.010274 0.159498,-0.389883 0.239262,-0.816743 0.239262,-1.281059 v -1.456759 c 0,-0.46077 -0.07976,-0.886008 -0.239262,-1.27589 -0.159497,-0.393428 -0.381007,-0.730268 -0.664559,-1.010274 -0.283551,-0.283552 -0.620391,-0.505062 -1.010274,-0.66456 -0.3863387,-0.159497 -0.8083291,-0.239262 -1.2655557,-0.239262 z m 8.3416095,0.106454 c -0.223296,0 -0.464212,0.04043 -0.722954,0.121956 -0.25874,0.07797 -0.499656,0.207327 -0.722952,0.388091 -0.2197532,0.177219 -0.4040743,0.409502 -0.5529383,0.696598 -0.14532,0.283551 -0.218075,0.632787 -0.218075,1.04748 0,0.414694 0.07276,0.765554 0.218075,1.05265 0.148864,0.287096 0.3331851,0.519379 0.5529383,0.696598 0.223296,0.17722 0.464212,0.306569 0.722952,0.38809 0.258742,0.07797 0.499658,0.116789 0.722954,0.116789 h 3.179651 c 0.127599,0 0.242411,0.02103 0.345198,0.06356 0.106333,0.04253 0.195247,0.102891 0.266134,0.180868 0.07444,0.07798 0.131024,0.170137 0.170016,0.276468 0.03898,0.106332 0.0584,0.223285 0.0584,0.350883 0,0.262285 -0.07437,0.471399 -0.223242,0.627352 -0.145321,0.155954 -0.35067,0.234094 -0.6165,0.234094 H 9.3782397 v 1.382345 h 5.3330083 c 0.148864,0 0.306252,-0.01778 0.47284,-0.05322 0.17013,-0.03544 0.336669,-0.09041 0.499711,-0.164849 0.163041,-0.07444 0.320947,-0.169838 0.473355,-0.286803 0.15241,-0.116966 0.285522,-0.259228 0.398943,-0.425814 0.113424,-0.166586 0.203444,-0.357917 0.270784,-0.574125 0.07089,-0.219753 0.106454,-0.466055 0.106454,-0.738974 0,-0.272917 -0.03343,-0.51708 -0.100774,-0.733288 -0.06735,-0.216208 -0.159503,-0.408055 -0.276468,-0.574642 -0.113421,-0.166586 -0.244911,-0.308332 -0.393775,-0.425297 -0.148864,-0.120509 -0.306253,-0.21968 -0.472839,-0.297657 -0.163042,-0.07798 -0.327958,-0.134571 -0.494543,-0.170015 -0.166587,-0.03898 -0.324492,-0.06054 -0.473357,-0.06408 h -0.01033 -3.179652 c -0.262283,0 -0.467634,-0.076 -0.616499,-0.22841 -0.145319,-0.155953 -0.218074,-0.36669 -0.218074,-0.63252 -1e-6,-0.262284 0.07276,-0.473538 0.218074,-0.633035 0.148865,-0.159498 0.354216,-0.238745 0.616499,-0.238745 h 4.705139 v -1.382345 z m -8.3416095,1.275891 H 5.061187 c 0.2658294,0 0.5088852,0.0442 0.7286375,0.132808 0.223297,0.08506 0.4130043,0.207405 0.5689576,0.366903 0.1594976,0.155954 0.2818376,0.345661 0.3669026,0.568957 0.08861,0.219752 0.132809,0.466055 0.132809,0.738973 v 1.456759 c 0,0.272918 -0.0442,0.520844 -0.132809,0.744141 -0.08506,0.219752 -0.207405,0.40946 -0.3669026,0.568957 -0.1594976,0.155954 -0.3508285,0.278293 -0.5741252,0.366902 -0.2197523,0.08506 -0.4644315,0.127642 -0.7338051,0.127642 H 3.1899835 c -0.2693739,0 -0.5156763,-0.04257 -0.7389731,-0.127642 -0.2197524,-0.08861 -0.4094599,-0.210948 -0.5689575,-0.366902 -0.1594977,-0.159497 -0.2834605,-0.349205 -0.3720704,-0.568957 -0.085065,-0.223297 -0.1276407,-0.471223 -0.1276407,-0.744141 v -1.456759 c 0,-0.272918 0.042575,-0.519221 0.1276407,-0.738973 0.08861,-0.223296 0.2125727,-0.413003 0.3720704,-0.568957 0.1594976,-0.159498 0.3492051,-0.281837 0.5689575,-0.366903 0.2232968,-0.08861 0.4695992,-0.132808 0.7389731,-0.132808 z m 3.7429242,7.615039 c -0.237475,0 -0.450352,0.03017 -0.6382042,0.09043 -0.1878529,0.06025 -0.3543911,0.141642 -0.4997111,0.244429 -0.1417757,0.09924 -0.2641153,0.214573 -0.3669028,0.345716 -0.1027879,0.131142 -0.185798,0.269125 -0.249597,0.414445 -0.063799,0.141775 -0.1117608,0.287284 -0.1436606,0.436149 -0.028355,0.14532 -0.042374,0.281679 -0.042374,0.409277 v 3.7429244 c 0,0.237474 0.030178,0.4519741 0.090434,0.6433714 0.060254,0.1878528 0.1400189,0.3543908 0.2392617,0.4997111 0.1027879,0.1417756 0.2197404,0.2641155 0.350883,0.3669028 0.1311426,0.099244 0.2675016,0.1806307 0.4092773,0.2444294 0.1453203,0.063799 0.2903122,0.11176 0.4356327,0.1436606 0.148864,0.028354 0.287364,0.042374 0.414962,0.042374 H 11.919683 V -5.9278065 H 6.9329077 c -0.17722,0 -0.315719,-0.047962 -0.414962,-0.1436606 -0.095698,-0.099243 -0.1431439,-0.2372248 -0.1431439,-0.4144448 v -3.7320721 c 0,-0.187852 0.047445,-0.329598 0.1431439,-0.425297 0.0957,-0.0957 0.234198,-0.143661 0.414962,-0.143661 h 4.9867753 v -1.382344 z"
         inkscape:label="Icon" />
    </g>
    <use
       x="0"
       y="0"
       xlink:href="#g1525"
       id="use1546"
       width="100%"
       height="100%"
       transform="translate(16.933336,38.099999)"
       style="fill:#438c04;fill-opacity:1"
       inkscape:label="Light Active" />
    <use
       x="0"
       y="0"
       xlink:href="#g1525"
       id="use1544"
       width="100%"
       height="100%"
       transform="translate(2.7783813e-6,38.099999)"
       style="fill:#1a1a1a;fill-opacity:1"
       inkscape:label="Light Inactive" />
    <use
       x="0"
       y="0"
       xlink:href="#g1525"
       id="use1542"
       transform="translate(16.933336,21.166666)"
       width="100%"
       height="100%"
       style="fill:#90f937;fill-opacity:1"
       inkscape:label="Dark Active" />
    <use
       x="0"
       y="0"
       xlink:href="#g1525"
       id="use1540"
       width="100%"
       height="100%"
       transform="translate(2.7783813e-6,21.166666)"
       style="fill:#dadada;fill-opacity:1"
       inkscape:label="Dark Inactive" />
  </g>
</svg>
